<?xml version="1.0" encoding="UTF-8" standalone="no"?> <svg width="64" height="64" viewBox="0 0 64 64" fill="none" xmlns="http://www.w3.org/2000/svg">
<path d="M52 8C53.0609 8 54.0783 8.42143 54.8284 9.17157C55.5786 9.92172 56 10.9391 56 12V39.2L44.677 58H6C4.93913 58 3.92172 57.5786 3.17157 56.8284C2.42143 56.0783 2 55.0609 2 54V12C2 10.9391 2.42143 9.92172 3.17157 9.17157C3.92172 8.42143 4.93913 8 6 8H52Z" fill="#CCCCCC"/>
<path d="M26.682 55H46.482L56 39.2V12C56 10.9391 55.5786 9.92172 54.8284 9.17157C54.0783 8.42143 53.0609 8 52 8H6V34.318C6 39.8032 8.17899 45.0638 12.0576 48.9424C15.9362 52.821 21.1968 55 26.682 55V55Z" fill="#E6E6E6"/>
<path d="M52 8H6C4.93913 8 3.92172 8.42143 3.17157 9.17157C2.42143 9.92172 2 10.9391 2 12V20H56V12C56 10.9391 55.5786 9.92172 54.8284 9.17157C54.0783 8.42143 53.0609 8 52 8V8Z" fill="#E73844"/>
<path d="M52 8H6V20H56V12C56 10.9391 55.5786 9.92172 54.8284 9.17157C54.0783 8.42143 53.0609 8 52 8V8Z" fill="#FF4D55"/>
<path d="M32 26H26V32H32V26Z" fill="white"/>
<path d="M42 26H36V32H42V26Z" fill="white"/>
<path d="M52 26H46V32H52V26Z" fill="white"/>
<path d="M32 36H26V42H32V36Z" fill="white"/>
<path d="M42 36H36V42H42V36Z" fill="white"/>
<path d="M52 38V36H46V39.201" fill="white"/>
<path d="M12 36H6V42H12V36Z" fill="white"/>
<path d="M22 36H16V42H22V36Z" fill="white"/>
<path d="M32 46H26V52H32V46Z" fill="white"/>
<path d="M40.415 46H36V52H40.413" fill="white"/>
<path d="M12 46H6V52H12V46Z" fill="white"/>
<path d="M22 46H16V52H22V46Z" fill="white"/>
<path d="M11 6C11 4.89543 10.1046 4 9 4C7.89543 4 7 4.89543 7 6V12C7 13.1046 7.89543 14 9 14C10.1046 14 11 13.1046 11 12V6Z" fill="#F9CB5D"/>
<path d="M21 6C21 4.89543 20.1046 4 19 4C17.8954 4 17 4.89543 17 6V12C17 13.1046 17.8954 14 19 14C20.1046 14 21 13.1046 21 12V6Z" fill="#F9CB5D"/>
<path d="M31 6C31 4.89543 30.1046 4 29 4C27.8954 4 27 4.89543 27 6V12C27 13.1046 27.8954 14 29 14C30.1046 14 31 13.1046 31 12V6Z" fill="#F9CB5D"/>
<path d="M41 6C41 4.89543 40.1046 4 39 4C37.8954 4 37 4.89543 37 6V12C37 13.1046 37.8954 14 39 14C40.1046 14 41 13.1046 41 12V6Z" fill="#F9CB5D"/>
<path d="M51 6C51 4.89543 50.1046 4 49 4C47.8954 4 47 4.89543 47 6V12C47 13.1046 47.8954 14 49 14C50.1046 14 51 13.1046 51 12V6Z" fill="#F9CB5D"/>
<path d="M9 4V10C9 10.5304 9.21071 11.0391 9.58579 11.4142C9.96086 11.7893 10.4696 12 11 12V6C11 5.46957 10.7893 4.96086 10.4142 4.58579C10.0391 4.21071 9.53043 4 9 4V4Z" fill="#FFD98C"/>
<path d="M19 4V10C19 10.5304 19.2107 11.0391 19.5858 11.4142C19.9609 11.7893 20.4696 12 21 12V6C21 5.46957 20.7893 4.96086 20.4142 4.58579C20.0391 4.21071 19.5304 4 19 4V4Z" fill="#FFD98C"/>
<path d="M29 4V10C29 10.5304 29.2107 11.0391 29.5858 11.4142C29.9609 11.7893 30.4696 12 31 12V6C31 5.46957 30.7893 4.96086 30.4142 4.58579C30.0391 4.21071 29.5304 4 29 4V4Z" fill="#FFD98C"/>
<path d="M39 4V10C39 10.5304 39.2107 11.0391 39.5858 11.4142C39.9609 11.7893 40.4696 12 41 12V6C41 5.46957 40.7893 4.96086 40.4142 4.58579C40.0391 4.21071 39.5304 4 39 4V4Z" fill="#FFD98C"/>
<path d="M49 4V10C49 10.5304 49.2107 11.0391 49.5858 11.4142C49.9609 11.7893 50.4696 12 51 12V6C51 5.46957 50.7893 4.96086 50.4142 4.58579C50.0391 4.21071 49.5304 4 49 4V4Z" fill="#FFD98C"/>
<path d="M51 60C57.0751 60 62 55.0751 62 49C62 42.9249 57.0751 38 51 38C44.9249 38 40 42.9249 40 49C40 55.0751 44.9249 60 51 60Z" fill="#8DBF00"/>
<path d="M50.9998 38C48.5718 37.9993 46.2126 38.8064 44.2938 40.294C42.6597 42.4083 41.8522 45.0456 42.0223 47.7123C42.1924 50.379 43.3286 52.8923 45.218 54.7817C47.1075 56.6712 49.6208 57.8073 52.2875 57.9775C54.9542 58.1476 57.5915 57.3401 59.7058 55.706C60.9625 54.08 61.7381 52.1342 61.9443 50.0895C62.1505 48.0448 61.7791 45.9832 60.8723 44.1391C59.9655 42.2949 58.5597 40.742 56.8145 39.6568C55.0694 38.5716 53.0548 37.9976 50.9998 38V38Z" fill="#A8D600"/>
<path d="M43 50L46 47L49 50L56 43L59 46L49 56L43 50Z" fill="white"/>
</svg>
