<?xml version="1.0" encoding="UTF-8"?>
<svg version="1.1" xmlns="http://www.w3.org/2000/svg" width="512" height="513">
<path d="M0 0 C1.62938413 -0.00648475 3.2587608 -0.01514284 4.88812315 -0.0257743 C9.34615285 -0.04851454 13.80365844 -0.04023061 18.2617054 -0.02663505 C23.07711717 -0.01736236 27.89242633 -0.03688336 32.70780945 -0.0526123 C42.13404321 -0.07867811 51.5600861 -0.07761751 60.98634218 -0.06657412 C68.6495395 -0.05800945 76.31268167 -0.05885143 83.97587967 -0.06637001 C85.06732778 -0.0674249 86.1587759 -0.06847979 87.2832982 -0.06956664 C89.5007091 -0.07173761 91.71811999 -0.07392439 93.93553086 -0.07612679 C114.72135881 -0.09555 135.50707977 -0.08356537 156.29289897 -0.06134085 C174.11677979 -0.04309394 191.94045342 -0.0539895 209.76431274 -0.08564758 C230.47360769 -0.12242871 251.18277326 -0.13942515 271.89210093 -0.12623531 C274.10188141 -0.12489424 276.3116619 -0.12358526 278.52144241 -0.12230873 C280.15222011 -0.12136273 280.15222011 -0.12136273 281.81594282 -0.12039762 C289.46632776 -0.11737322 297.11661493 -0.12861823 304.76697922 -0.14555931 C314.09564189 -0.16590597 323.42401229 -0.16498151 332.75265978 -0.13692691 C337.50971819 -0.12317487 342.26626674 -0.11892562 347.02330589 -0.14087677 C351.38347199 -0.16073033 355.74268128 -0.15257739 360.10278185 -0.12268243 C361.67468637 -0.11670537 363.24666954 -0.12070529 364.81851058 -0.13604566 C377.28394559 -0.24877429 386.27074587 2.49201349 395.88247681 10.64164734 C405.43047536 21.95632338 408.05358285 33.35417482 408.01111126 47.77016544 C408.0128643 48.5396098 408.01461733 49.30905416 408.01642349 50.10181502 C408.02105393 52.66516476 408.01862568 55.22845705 408.01618958 57.79180908 C408.01805902 59.65416047 408.02036026 61.51651147 408.0230549 63.37886184 C408.02916245 68.48519706 408.02904054 73.59151589 408.02786052 78.69785392 C408.02765626 84.20915025 408.03317761 89.72044135 408.03791809 95.23173523 C408.04621874 106.0236471 408.04897264 116.81555351 408.04953047 127.60746831 C408.05000577 136.37768614 408.0520612 145.14790217 408.05523109 153.91811943 C408.06260288 174.73728834 408.06875613 195.55645617 408.06823254 216.37562656 C408.06821696 217.04100065 408.06820138 217.70637474 408.06818533 218.39191167 C408.06810222 221.76417426 408.06800318 225.13643684 408.06790062 228.50869942 C408.0678707 229.51328715 408.0678707 229.51328715 408.06784018 230.53816958 C408.06779974 231.89251447 408.06775795 233.24685937 408.06771479 234.60120426 C408.06710175 255.68231913 408.07461492 276.76341793 408.08828735 297.8445282 C408.10364697 321.53672267 408.11224104 345.22890912 408.11132413 368.92110962 C408.11099192 381.46325819 408.11374993 394.00538862 408.12450218 406.54753304 C408.13359499 417.22230706 408.13579236 427.89705472 408.12899276 438.57183094 C408.12572181 444.01884476 408.12569168 449.46580796 408.13434601 454.912817 C408.14218615 459.89856371 408.14080508 464.88421945 408.13206188 469.86996388 C408.13052144 471.67399794 408.13236344 473.47803871 408.13792195 475.28206486 C408.14497811 477.73447681 408.13969154 480.18656925 408.13136578 482.63897038 C408.13633396 483.33894143 408.14130214 484.03891249 408.14642087 484.76009479 C408.10278624 490.84166247 407.5049217 496.55564676 403.69497681 501.45414734 C397.28385246 506.44057738 389.51381431 507.94586395 381.75747681 509.82914734 C380.17966431 510.23810242 380.17966431 510.23810242 378.56997681 510.65531921 C363.78250952 514.26179809 351.95961839 512.06160812 337.52310181 507.95414734 C329.54962672 505.83804461 323.81966372 505.40870593 315.88247681 507.64164734 C314.14567033 508.07203234 312.40869163 508.50172293 310.67153931 508.93070984 C308.0940589 509.59260058 305.52051008 510.26310006 302.95278931 510.96195984 C288.97094234 514.49953558 277.1337564 511.82663484 263.52310181 507.95414734 C255.53444783 505.83401624 249.83403922 505.43501487 241.88247681 507.64164734 C240.06164369 508.0746344 238.24001718 508.5042979 236.41763306 508.93070984 C233.68156302 509.59470971 230.94843703 510.2657643 228.22036743 510.96195984 C214.37887707 514.27681427 203.14798315 511.80386426 189.65982056 507.95414734 C181.34722457 505.75038382 175.19907444 505.49045533 166.88247681 507.64164734 C165.98851196 507.85514832 165.09454712 508.06864929 164.17349243 508.28862 C160.70814335 509.13312223 157.25869544 510.02925477 153.81607056 510.96195984 C140.090248 514.43999632 128.65952865 511.7060177 115.27896118 507.86625671 C105.37864728 505.29044089 98.68300516 505.94280622 88.88247681 508.64164734 C87.29565785 509.03268111 85.70849248 509.42231615 84.12075806 509.80961609 C82.15854486 510.31396769 80.20078303 510.82754582 78.24771118 511.36625671 C66.82645833 514.25221231 56.24103606 512.2173373 45.00747681 509.39164734 C43.72872681 509.09129578 42.44997681 508.79094421 41.13247681 508.48149109 C33.43749107 506.5938902 26.28208234 504.8199511 21.88247681 497.64164734 C20.69278041 494.07255815 20.74257656 490.84023969 20.75219154 487.12647724 C20.75024812 486.35044896 20.74830469 485.57442068 20.74630237 484.77487639 C20.74095316 482.15300219 20.74274891 479.53118019 20.7444458 476.90930176 C20.74202907 475.01913016 20.73916722 473.12895909 20.73589647 471.23878878 C20.72812312 466.02768669 20.72652298 460.81659775 20.72584534 455.60549057 C20.72400921 449.99183682 20.71640436 444.37819084 20.70936584 438.76454163 C20.69782795 429.03104562 20.68959003 419.29755136 20.68324661 409.56405067 C20.67293277 394.18314085 20.65237234 378.80225273 20.63012695 363.4213562 C20.62264682 358.16206462 20.61523315 352.90277295 20.60783958 347.64348125 C20.60598902 346.32903638 20.60413845 345.01459151 20.60223181 343.66031498 C20.58129477 328.68982046 20.56245818 313.71932355 20.54458618 298.74882507 C20.5437665 298.06458701 20.54294682 297.38034894 20.54210231 296.67537639 C20.52302058 280.71394027 20.50605868 264.75250428 20.4937439 248.7910614 C20.49321423 248.10477012 20.49268456 247.41847884 20.49213884 246.71139086 C20.4878873 241.1796896 20.48371096 235.64798829 20.47955404 230.11628696 C20.46186949 206.66366024 20.43291586 183.21107224 20.39310491 159.75847071 C20.36968705 145.71100633 20.35570873 131.6635953 20.35377727 117.61611124 C20.35167009 107.99044338 20.33875925 98.36482862 20.31729795 88.7391846 C20.30525392 83.18283554 20.29812762 77.62659192 20.30401039 72.07023048 C20.3092988 66.98426889 20.30085293 61.89852252 20.28145401 56.81259688 C20.27687254 54.97205054 20.27735705 53.13148321 20.2834024 51.2909411 C20.29088691 48.78904393 20.27993624 46.28786854 20.26444435 43.78602314 C20.27100689 43.07150223 20.27756944 42.35698133 20.28433084 41.62080827 C20.19805604 34.26536614 17.71311334 27.21545872 12.88247681 21.64164734 C6.05636163 16.73254363 -0.84588032 15.30118347 -9.11752319 16.64164734 C-15.20239211 18.56273947 -19.66414453 21.33594092 -23.18002319 26.70024109 C-25.40665239 31.31121905 -26.36765392 35.46659462 -26.3747921 40.5737896 C-26.38124099 41.74425642 -26.38768988 42.91472324 -26.3943342 44.12065876 C-26.39123699 45.39730148 -26.38813979 46.6739442 -26.38494873 47.98927307 C-26.38868688 49.36643572 -26.39328906 50.74359624 -26.39867938 52.12075341 C-26.41090427 55.89990246 -26.41064952 59.67896295 -26.40829062 63.45812726 C-26.40788233 67.53593638 -26.41892272 71.61371716 -26.42840576 75.69151306 C-26.44501347 83.67844056 -26.45051519 91.66533854 -26.45163052 99.65228187 C-26.45258101 106.14425648 -26.45669139 112.63622136 -26.46303177 119.1281929 C-26.48064285 137.53495814 -26.48987074 155.94170005 -26.48837082 174.34847377 C-26.48829091 175.34063609 -26.488211 176.3327984 -26.48812866 177.35502625 C-26.4880469 178.34840009 -26.48796514 179.34177393 -26.4878809 180.36525001 C-26.48706784 196.46762162 -26.50621101 212.56989973 -26.5344054 228.6722443 C-26.56312815 245.206821 -26.57694605 261.74135208 -26.57521784 278.27595437 C-26.57455378 287.55859649 -26.58005354 296.84114057 -26.60157394 306.12376022 C-26.61977764 314.02635895 -26.6241397 321.92881517 -26.6105551 329.83142577 C-26.60402158 333.8628388 -26.60392196 337.89397837 -26.6212616 341.92536545 C-26.63698048 345.61792272 -26.63414125 349.30998943 -26.61669333 353.00253464 C-26.61216837 354.96675409 -26.62729001 356.93098867 -26.64317262 358.89514911 C-26.58803022 365.94372789 -26.00359122 370.68743578 -22.11752319 376.64164734 C-16.86523223 380.88818046 -11.63480879 381.36602127 -5.00814819 382.05180359 C-1.93603641 382.67868045 -0.91925194 383.13252844 0.88247681 385.64164734 C2.00550814 389.33160743 2.21986528 390.95153456 0.50747681 394.45414734 C-1.11752319 396.64164734 -1.11752319 396.64164734 -2.11752319 397.64164734 C-13.64700185 398.48797489 -23.07193414 397.91978425 -32.43002319 390.45414734 C-38.77391561 384.46910136 -42.73298898 376.52040262 -43.30395377 367.79149854 C-43.37877418 364.20477749 -43.38874684 360.62287277 -43.3782196 357.03536987 C-43.38124222 355.64227081 -43.38513226 354.2491734 -43.38981217 352.85607892 C-43.40008683 349.03743984 -43.3979117 345.2188947 -43.39363158 341.40024793 C-43.39116336 337.27811318 -43.40017975 333.15600099 -43.40766907 329.03387451 C-43.42041581 320.96151864 -43.42220976 312.88919603 -43.4198688 304.81683179 C-43.41808532 298.25434194 -43.41983594 291.69186219 -43.42409325 285.12937355 C-43.42468844 284.19513711 -43.42528362 283.26090067 -43.42589685 282.29835403 C-43.42710861 280.40039608 -43.42832275 278.50243813 -43.42953923 276.60448018 C-43.44041485 258.80649338 -43.43825227 241.00852552 -43.43215438 223.21053765 C-43.42698622 206.93500081 -43.43823797 190.65952383 -43.4572526 174.38399883 C-43.47663382 157.66631981 -43.48488644 140.94866911 -43.48112935 124.23097879 C-43.47921761 114.84770349 -43.48170218 105.46447913 -43.49584389 96.081213 C-43.50776232 88.09234138 -43.50915744 80.10355206 -43.49705372 72.1146793 C-43.49116805 68.04052721 -43.49005689 63.96652561 -43.50205612 59.89238358 C-43.51292515 56.15850669 -43.5097996 52.42490578 -43.49579444 48.69104175 C-43.49190325 46.70946845 -43.50268634 44.72788284 -43.51409131 42.74633855 C-43.44022615 30.51859612 -40.67347884 19.88844562 -32.30111694 10.63383484 C-22.50680904 1.4924808 -12.98417238 -0.0944708 0 0 Z M28.88247681 14.64164734 C29.22021118 15.27070984 29.55794556 15.89977234 29.90591431 16.54789734 C30.35192993 17.40383484 30.79794556 18.25977234 31.25747681 19.14164734 C31.69833618 19.97695984 32.13919556 20.81227234 32.59341431 21.67289734 C35.32524366 27.96438312 36.17923597 33.92475697 36.14418983 40.77878571 C36.15018393 41.95254456 36.15018393 41.95254456 36.15629911 43.15001571 C36.16724036 45.76378692 36.16407678 48.37734526 36.16094971 50.99113464 C36.16595443 52.88720008 36.17183075 54.78326337 36.17850244 56.67932367 C36.19429497 61.88318063 36.19773272 67.08698358 36.19915104 72.29086161 C36.20284637 77.90496767 36.21800254 83.51904416 36.23176575 89.13313293 C36.25403817 98.85782562 36.26905158 108.58250779 36.27913284 118.30722046 C36.29371915 132.36751503 36.31925587 146.42777293 36.34746413 160.48804599 C36.39293297 183.29998021 36.42956445 206.11191656 36.46060181 228.9238739 C36.49077253 251.08338854 36.52511421 273.24289032 36.56509399 295.40238953 C36.566325 296.08561492 36.567556 296.76884032 36.56882431 297.47276952 C36.58119132 304.33408987 36.59364303 311.19541006 36.60615679 318.05673014 C36.71106969 375.58501763 36.80169764 433.11332117 36.88247681 490.64164734 C40.87875748 491.65691865 44.88000993 492.65107025 48.88247681 493.64164734 C50.00782837 493.92781921 51.13317993 494.21399109 52.29263306 494.50883484 C61.04691037 496.65900821 67.88750022 497.42034599 76.72622681 495.11039734 C77.97275024 494.79457703 79.21927368 494.47875671 80.50357056 494.15336609 C81.79682676 493.81723054 83.08979444 493.47998302 84.38247681 493.14164734 C99.46703678 489.19354293 108.28865172 489.71458095 123.32827759 493.65092468 C136.90445674 497.17956534 144.82946347 496.68889776 158.38247681 493.14164734 C172.5630963 489.43013262 181.87826355 489.6059004 195.94497681 493.14164734 C197.95786341 493.64625994 199.97123994 494.14786263 201.98731995 494.63957214 C203.81372046 495.08505188 205.63737987 495.54172638 207.46084595 495.99906921 C213.55992311 497.14446851 218.657158 496.66374128 224.62857056 495.11039734 C225.87831665 494.79457703 227.12806274 494.47875671 228.41567993 494.15336609 C230.36891415 493.64894194 232.32128299 493.14130679 234.27334595 492.63237 C247.73264565 489.14511848 256.65695283 489.8016283 269.94497681 493.14164734 C271.95786341 493.64625994 273.97123994 494.14786263 275.98731995 494.63957214 C277.81372046 495.08505188 279.63737987 495.54172638 281.46084595 495.99906921 C287.55992311 497.14446851 292.657158 496.66374128 298.62857056 495.11039734 C299.87831665 494.79457703 301.12806274 494.47875671 302.41567993 494.15336609 C304.36891415 493.64894194 306.32128299 493.14130679 308.27334595 492.63237 C321.73264565 489.14511848 330.65695283 489.8016283 343.94497681 493.14164734 C345.95786341 493.64625994 347.97123994 494.14786263 349.98731995 494.63957214 C351.81372046 495.08505188 353.63737987 495.54172638 355.46084595 495.99906921 C363.77999282 497.56139491 370.71298403 495.68798321 378.81997681 493.64164734 C379.98077759 493.35547546 381.14157837 493.06930359 382.33755493 492.77445984 C385.18773097 492.07071267 388.03584946 491.35958935 390.88247681 490.64164734 C390.97399617 432.55873986 391.04450525 374.47583756 391.08673812 316.39287245 C391.09172748 309.53846005 391.09691369 302.6840478 391.10220337 295.82963562 C391.10298792 294.80649006 391.10298792 294.80649006 391.10378833 293.7626749 C391.12083425 271.65324434 391.15087987 249.54385467 391.18766569 227.43444888 C391.22646833 204.07043807 391.25046085 180.70646138 391.25883079 157.34241581 C391.26432418 143.34501357 391.28168591 129.34772871 391.31414267 115.3503626 C391.33525702 105.75691656 391.34168382 96.16353137 391.33648232 86.57006377 C391.33391576 81.03191341 391.33790008 75.49396843 391.35929871 69.95585442 C391.37874372 64.8864013 391.37975998 59.81729196 391.36607239 54.74782312 C391.36438034 52.9132311 391.36947178 51.07861775 391.38200954 49.24406779 C391.39806431 46.75001479 391.38941024 44.25720243 391.37466812 41.76316833 C391.38517618 41.05099858 391.39568423 40.33882882 391.40651071 39.60507816 C391.31426942 32.69865882 388.49014724 26.65537657 383.56997681 21.82914734 C374.72827783 13.55301546 363.56148768 14.49586125 352.24687195 14.52139282 C350.85077264 14.52095644 349.45467341 14.5200803 348.05857462 14.51880366 C344.23204916 14.51657186 340.4055518 14.52056198 336.57902992 14.52558172 C332.4489167 14.52990492 328.31880503 14.52843846 324.18869019 14.52767944 C317.03623645 14.5271554 309.88379185 14.53028978 302.73134041 14.53591728 C292.39012859 14.54404839 282.04892118 14.54664916 271.7077065 14.54790527 C254.92929085 14.55009326 238.15088006 14.55674648 221.37246704 14.56620789 C205.07494125 14.57538855 188.77741677 14.58246619 172.47988892 14.5867157 C171.47511047 14.58697842 170.47033203 14.58724115 169.43510575 14.58751183 C164.39436818 14.58881688 159.35363061 14.59008058 154.31289303 14.59132373 C112.50275091 14.60168845 70.69261414 14.61929989 28.88247681 14.64164734 Z " fill="#000000" transform="translate(74.11752319335938,-0.6416473388671875)"/>
<path d="M0 0 C0.81166237 -0.00523668 1.62332473 -0.01047336 2.45958292 -0.01586872 C5.18873168 -0.03091193 7.91769367 -0.03157482 10.6468811 -0.03224182 C12.59978046 -0.03986038 14.55267681 -0.04828735 16.50556946 -0.0574646 C21.81754734 -0.07944586 27.12946765 -0.08821332 32.44148588 -0.09329104 C35.7584079 -0.0969302 39.07531474 -0.10316793 42.39223099 -0.11029243 C53.9587292 -0.1347991 65.52518248 -0.14784155 77.09170532 -0.15138245 C87.88165935 -0.15501913 98.67132917 -0.18492098 109.4611963 -0.22678703 C118.71816849 -0.26144903 127.9750463 -0.27693017 137.23208296 -0.27762848 C142.76388386 -0.27842266 148.29539538 -0.28722617 153.82712936 -0.31562614 C159.02942701 -0.34173678 164.23119392 -0.34405115 169.43352699 -0.3279705 C171.34393403 -0.32615045 173.2543711 -0.33289667 175.16471291 -0.34878922 C177.77116759 -0.36915255 180.37574827 -0.35875649 182.98217773 -0.34057617 C183.73986588 -0.35377614 184.49755402 -0.36697611 185.27820241 -0.38057607 C189.22094342 -0.3176731 190.95737155 0.14692651 194.08750343 2.62507534 C196.11807251 5.27415466 196.11807251 5.27415466 196.74307251 8.27415466 C195.88878365 12.37474121 194.38697309 13.68691656 191.11807251 16.27415466 C188.19855583 16.76477889 185.86469704 16.9476671 182.95094299 16.90234375 C182.13278266 16.90943814 181.31462233 16.91653252 180.47166926 16.92384189 C177.73214963 16.94143396 174.99404653 16.92331156 172.25454712 16.90525818 C170.28987481 16.9103965 168.32520711 16.91767712 166.36054993 16.92694092 C161.02586356 16.9454729 155.69167626 16.93250533 150.3570106 16.91285062 C144.77748569 16.89648006 139.19799278 16.90527469 133.61845398 16.91036987 C124.24934911 16.91489223 114.8804438 16.89901117 105.51138306 16.87107849 C94.67366458 16.8390167 83.83630586 16.83904553 72.9985618 16.85629326 C62.57875864 16.87214615 52.1590876 16.86543335 41.73929024 16.84835625 C37.30194146 16.84147693 32.86469832 16.84252721 28.427351 16.8499012 C23.20451551 16.8575514 17.98209047 16.84547918 12.75932503 16.81805229 C10.8404576 16.81115445 8.92155193 16.81108541 7.00268555 16.81826782 C4.38740216 16.82693039 1.77339483 16.81106153 -0.84178162 16.78881836 C-1.60490931 16.79705913 -2.36803701 16.80529989 -3.15428978 16.81379038 C-6.63480279 16.75898162 -8.52903622 16.54559329 -11.32584286 14.39433193 C-13.17621591 11.87318443 -13.80549292 10.40797203 -13.88192749 7.27415466 C-10.75416061 0.54945587 -6.88539833 -0.02181831 0 0 Z " fill="#000000" transform="translate(147.88192749023438,342.72584533691406)"/>
<path d="M0 0 C0.77741739 0.0030972 1.55483479 0.00619441 2.35581028 0.00938547 C3.17957445 0.00485435 4.00333861 0.00032324 4.85206532 -0.00434518 C7.62811951 -0.01706313 10.40397936 -0.01536407 13.18005955 -0.01371634 C15.16398955 -0.019697 17.14791721 -0.02650146 19.13184178 -0.03407156 C24.5326585 -0.05178625 29.9334119 -0.05642925 35.33425486 -0.05770314 C39.83739982 -0.05959865 44.34052992 -0.0669522 48.84366918 -0.07404733 C59.46524702 -0.0903498 70.08679095 -0.0952146 80.70837986 -0.09379447 C91.67722309 -0.09259265 102.64586967 -0.11369813 113.61466312 -0.14528179 C123.02106698 -0.17140484 132.42740646 -0.18216343 141.83384633 -0.18088365 C147.45668459 -0.18037283 153.07934822 -0.18612196 158.70215046 -0.20723975 C163.98973752 -0.22655522 169.27698215 -0.22679255 174.56458104 -0.21220648 C176.50765174 -0.21010892 178.4507435 -0.21487528 180.39377797 -0.2269274 C183.04201068 -0.24229241 185.68904982 -0.23313028 188.3372556 -0.21766531 C189.49668952 -0.233096 189.49668952 -0.233096 190.67954636 -0.24883842 C194.14413887 -0.20398067 196.11944373 0.01780179 198.9507829 2.08896577 C201.18365242 5.29712553 201.01813374 7.46449089 200.47351658 11.276811 C198.25488629 14.18398173 196.9540673 15.11662743 193.47351658 16.276811 C190.87532696 16.37676888 188.30386049 16.42025292 185.70548069 16.4172529 C184.90606899 16.42022402 184.10665728 16.42319514 183.28302097 16.4262563 C180.59536967 16.43495109 177.90776288 16.4364522 175.22009861 16.43794382 C173.2967578 16.44257139 171.3734179 16.44759597 169.45007908 16.45298898 C164.21868324 16.46611973 158.98730024 16.47255911 153.75589049 16.47699964 C150.4892266 16.47992892 147.22256624 16.48403343 143.95590413 16.48850381 C133.74010722 16.50217973 123.52431835 16.51184626 113.30851293 16.5157057 C101.50659674 16.52018861 89.70479624 16.53774693 77.90291524 16.5667063 C68.78607682 16.58830253 59.669271 16.59840886 50.55240726 16.59974682 C45.10451696 16.60079621 39.65673539 16.60673259 34.20887196 16.62456644 C29.08547591 16.6410118 23.96227076 16.64321983 18.83885777 16.63442743 C16.95748331 16.63365519 15.07609873 16.63802427 13.19474995 16.64788568 C10.62811095 16.66055121 8.06215361 16.65475799 5.49551976 16.64430368 C4.74950446 16.65236008 4.00348916 16.66041649 3.23486733 16.66871703 C-1.18382985 16.62656823 -4.03768477 16.04436991 -7.52648342 13.276811 C-9.21206836 9.90564112 -9.77532752 8.18923938 -8.77648342 4.526811 C-6.40622597 0.2603476 -4.73320579 0.04328646 0 0 Z " fill="#000000" transform="translate(143.5264834165573,280.723188996315)"/>
<path d="M0 0 C0.81166237 -0.00523668 1.62332473 -0.01047336 2.45958292 -0.01586872 C5.18873168 -0.03091193 7.91769367 -0.03157482 10.6468811 -0.03224182 C12.59978046 -0.03986038 14.55267681 -0.04828735 16.50556946 -0.0574646 C21.81754734 -0.07944586 27.12946765 -0.08821332 32.44148588 -0.09329104 C35.7584079 -0.0969302 39.07531474 -0.10316793 42.39223099 -0.11029243 C53.9587292 -0.1347991 65.52518248 -0.14784155 77.09170532 -0.15138245 C87.88165935 -0.15501913 98.67132917 -0.18492098 109.4611963 -0.22678703 C118.71816849 -0.26144903 127.9750463 -0.27693017 137.23208296 -0.27762848 C142.76388386 -0.27842266 148.29539538 -0.28722617 153.82712936 -0.31562614 C159.02942701 -0.34173678 164.23119392 -0.34405115 169.43352699 -0.3279705 C171.34393403 -0.32615045 173.2543711 -0.33289667 175.16471291 -0.34878922 C177.77116759 -0.36915255 180.37574827 -0.35875649 182.98217773 -0.34057617 C183.73986588 -0.35377614 184.49755402 -0.36697611 185.27820241 -0.38057607 C189.22094342 -0.3176731 190.95737155 0.14692651 194.08750343 2.62507534 C196.11807251 5.27415466 196.11807251 5.27415466 196.74307251 8.27415466 C195.88878365 12.37474121 194.38697309 13.68691656 191.11807251 16.27415466 C188.19855583 16.76477889 185.86469704 16.9476671 182.95094299 16.90234375 C182.13278266 16.90943814 181.31462233 16.91653252 180.47166926 16.92384189 C177.73214963 16.94143396 174.99404653 16.92331156 172.25454712 16.90525818 C170.28987481 16.9103965 168.32520711 16.91767712 166.36054993 16.92694092 C161.02586356 16.9454729 155.69167626 16.93250533 150.3570106 16.91285062 C144.77748569 16.89648006 139.19799278 16.90527469 133.61845398 16.91036987 C124.24934911 16.91489223 114.8804438 16.89901117 105.51138306 16.87107849 C94.67366458 16.8390167 83.83630586 16.83904553 72.9985618 16.85629326 C62.57875864 16.87214615 52.1590876 16.86543335 41.73929024 16.84835625 C37.30194146 16.84147693 32.86469832 16.84252721 28.427351 16.8499012 C23.20451551 16.8575514 17.98209047 16.84547918 12.75932503 16.81805229 C10.8404576 16.81115445 8.92155193 16.81108541 7.00268555 16.81826782 C4.38740216 16.82693039 1.77339483 16.81106153 -0.84178162 16.78881836 C-1.60490931 16.79705913 -2.36803701 16.80529989 -3.15428978 16.81379038 C-6.63480279 16.75898162 -8.52903622 16.54559329 -11.32584286 14.39433193 C-13.17621591 11.87318443 -13.80549292 10.40797203 -13.88192749 7.27415466 C-10.75416061 0.54945587 -6.88539833 -0.02181831 0 0 Z " fill="#000000" transform="translate(147.88192749023438,217.72584533691406)"/>
<path d="M0 0 C1.23080255 -0.00679667 1.23080255 -0.00679667 2.48646981 -0.01373065 C5.24559893 -0.02642648 8.00453197 -0.02475095 10.76368713 -0.02310181 C12.73791255 -0.02908378 14.71213562 -0.03588855 16.68635559 -0.04345703 C22.05612243 -0.06115682 27.42582558 -0.06581405 32.79561877 -0.0670886 C37.27396066 -0.06898521 41.75228762 -0.0763399 46.23062378 -0.08343279 C56.79324761 -0.09972907 67.35583734 -0.10460057 77.91847229 -0.10317993 C88.82542075 -0.1019778 99.73217155 -0.12309104 110.63906997 -0.15466726 C119.99453905 -0.18078984 129.3499434 -0.19154894 138.70544869 -0.19026911 C144.29697331 -0.18975834 149.88832231 -0.1955049 155.47981071 -0.21662521 C160.73704295 -0.23594025 165.99393079 -0.23617833 171.25117493 -0.22159195 C173.18295861 -0.21949444 175.11476347 -0.22426045 177.0465107 -0.23631287 C179.67936554 -0.25167838 182.31101991 -0.24251551 184.94384766 -0.22705078 C186.09642198 -0.24248147 186.09642198 -0.24248147 187.27228063 -0.25822389 C190.72728479 -0.21323059 192.68773657 0.01280635 195.50988865 2.07958031 C197.74649467 5.2872245 197.58024681 7.45360743 197.03541565 11.26742554 C194.81678536 14.17459627 193.51596636 15.10724197 190.03541565 16.26742554 C187.43722602 16.36738341 184.86575955 16.41086746 182.26737976 16.40786743 C181.46796805 16.41083855 180.66855634 16.41380968 179.84492004 16.41687083 C177.15726874 16.42556562 174.46966194 16.42706673 171.78199768 16.42855835 C169.85865687 16.43318592 167.93531697 16.4382105 166.01197815 16.44360352 C160.78058231 16.45673426 155.5491993 16.46317364 150.31778955 16.46761417 C147.05112567 16.47054346 143.78446531 16.47464796 140.51780319 16.47911835 C130.30200629 16.49279427 120.08621742 16.5024608 109.87041199 16.50632024 C98.0684958 16.51080314 86.26669531 16.52836146 74.46481431 16.55732083 C65.34797589 16.57891707 56.23117007 16.5890234 47.11430633 16.59036136 C41.66641602 16.59141075 36.21863446 16.59734712 30.77077103 16.61518097 C25.64737498 16.63162634 20.52416983 16.63383436 15.40075684 16.62504196 C13.51938237 16.62426972 11.63799779 16.6286388 9.75664902 16.63850021 C7.19001002 16.65116574 4.62405268 16.64537252 2.05741882 16.63491821 C1.31140352 16.64297462 0.56538822 16.65103102 -0.2032336 16.65933156 C-4.62193079 16.61718276 -7.4757857 16.03498444 -10.96458435 13.26742554 C-12.63812886 9.92033651 -13.19014565 8.16967072 -12.27708435 4.51742554 C-9.32893335 -0.5365476 -5.21217887 -0.02094848 0 0 Z " fill="#000000" transform="translate(146.96458435058594,405.7325744628906)"/>
<path d="M0 0 C2.27657201 0.00845232 4.55058399 -0.02014977 6.8269043 -0.05200195 C14.42689918 -0.08898833 20.64623337 -0.00157226 27.11401367 4.44604492 C32.54837645 10.15909297 32.44625933 15.3147353 32.40698242 22.91088867 C31.94360448 28.50231588 30.12746657 32.43259202 26.11401367 36.44604492 C26.87713867 36.98229492 27.64026367 37.51854492 28.42651367 38.07104492 C31.81026295 41.06133499 33.7429474 43.93000527 34.41552734 48.49047852 C34.55282584 50.77506457 34.57252601 53.03261017 34.55151367 55.32104492 C34.58148438 56.46766602 34.58148438 56.46766602 34.61206055 57.63745117 C34.60671591 63.93343273 32.97649095 69.18029909 28.77270508 73.97631836 C21.77170044 80.37551079 12.88410218 79.79043897 3.98828125 79.76171875 C1.92094226 79.75853635 -0.1449932 79.78214878 -2.2121582 79.80737305 C-3.52120117 79.80801758 -4.83024414 79.80866211 -6.17895508 79.80932617 C-7.37029053 79.81230713 -8.56162598 79.81528809 -9.7890625 79.81835938 C-13.30029588 79.39623632 -14.45551503 78.97711152 -16.88598633 76.44604492 C-17.38719177 73.33410645 -17.38719177 73.33410645 -17.38769531 69.4519043 C-17.3930983 68.74427444 -17.39850128 68.03664459 -17.40406799 67.30757141 C-17.41657806 64.96788742 -17.4000507 62.62942859 -17.38208008 60.28979492 C-17.38223502 58.66459081 -17.38372311 57.03938633 -17.38648987 55.41418457 C-17.38787487 52.00780914 -17.37529933 48.60185425 -17.35253906 45.19555664 C-17.32415378 40.82717431 -17.32689023 36.45949087 -17.33962917 32.09105682 C-17.34658112 28.73502625 -17.33880268 25.37915749 -17.32637215 22.02314758 C-17.32185291 20.41238526 -17.32152497 18.80160559 -17.32543755 17.19084167 C-17.32834512 14.94026022 -17.31186611 12.69064496 -17.29003906 10.44018555 C-17.28463608 9.15905884 -17.27923309 7.87793213 -17.27366638 6.5579834 C-16.88598633 3.44604492 -16.88598633 3.44604492 -15.56341553 1.53416443 C-11.37733761 -1.18127241 -4.89905858 -0.02777304 0 0 Z M-1.88598633 13.44604492 C-1.88598633 19.05604492 -1.88598633 24.66604492 -1.88598633 30.44604492 C0.32088867 30.52854492 2.52776367 30.61104492 4.80151367 30.69604492 C6.04288086 30.74245117 7.28424805 30.78885742 8.56323242 30.83666992 C12.72041453 30.37933416 14.30532963 29.50814407 17.11401367 26.44604492 C17.85783318 24.24553992 17.85783318 24.24553992 17.67651367 21.94604492 C17.67780273 21.19323242 17.6790918 20.44041992 17.68041992 19.66479492 C16.86851975 16.48438598 15.79337226 15.34338976 13.11401367 13.44604492 C10.34575117 13.15154891 8.09999345 13.06261129 5.36401367 13.19604492 C2.97151367 13.27854492 0.57901367 13.36104492 -1.88598633 13.44604492 Z M-1.88598633 42.44604492 C-1.88598633 50.36604492 -1.88598633 58.28604492 -1.88598633 66.44604492 C8.14382312 67.1642705 8.14382312 67.1642705 17.11401367 63.44604492 C19.47800213 59.90006224 19.41219741 58.21275394 19.42651367 54.00854492 C19.44327148 52.87545898 19.4600293 51.74237305 19.47729492 50.57495117 C19.08288225 47.17791302 18.51997226 45.82946526 16.11401367 43.44604492 C12.49319904 42.23910671 9.18894177 42.33822413 5.42651367 42.38354492 C3.01338867 42.40416992 0.60026367 42.42479492 -1.88598633 42.44604492 Z " fill="#000000" transform="translate(159.885986328125,58.553955078125)"/>
<path d="M0 0 C1.4540625 0.0309375 1.4540625 0.0309375 2.9375 0.0625 C3.2675 1.7125 3.5975 3.3625 3.9375 5.0625 C4.58976562 5.09988281 5.24203125 5.13726562 5.9140625 5.17578125 C12.2634272 5.65338833 16.99926959 6.49154839 21.9375 10.8125 C22.9375 13.0625 22.9375 13.0625 22.25 16.6875 C20.9375 20.0625 20.9375 20.0625 18.9375 22.0625 C13.25649956 21.72163997 9.47600329 20.13943873 3.9375 18.0625 C3.9375 24.0025 3.9375 29.9425 3.9375 36.0625 C5.8865625 36.5575 5.8865625 36.5575 7.875 37.0625 C13.65185267 38.98202383 17.97252897 42.48559898 21.9375 47.0625 C25.17266068 53.74221687 25.62610633 60.79133094 23.7109375 67.9296875 C21.14210573 75.01343573 17.02911578 78.00935284 10.33984375 81.21484375 C7.9375 82.0625 7.9375 82.0625 3.9375 82.0625 C3.958125 82.866875 3.97875 83.67125 4 84.5 C3.9375 87.0625 3.9375 87.0625 2.9375 88.0625 C0.93791636 88.10330783 -1.06295254 88.10504356 -3.0625 88.0625 C-3.3925 86.4125 -3.7225 84.7625 -4.0625 83.0625 C-5.114375 82.93294922 -5.114375 82.93294922 -6.1875 82.80078125 C-14.25562904 81.60590888 -20.51906878 79.22186803 -26.0625 73.0625 C-27.33027188 69.71196004 -27.12515165 68.25414035 -26 64.8125 C-24.0625 62.0625 -24.0625 62.0625 -21.40234375 61.14453125 C-16.88903145 61.03367797 -14.41800958 62.6458769 -10.6875 65 C-7.408125 67.0109375 -7.408125 67.0109375 -4.0625 69.0625 C-4.0625 62.1325 -4.0625 55.2025 -4.0625 48.0625 C-5.7125 47.7325 -7.3625 47.4025 -9.0625 47.0625 C-15.18840406 44.8670893 -19.52409787 41.53832232 -23.0625 36.0625 C-25.53240983 30.37096865 -25.41656247 25.03223529 -24.0625 19.0625 C-21.2131144 13.46926161 -17.08512473 9.61067364 -11.5 6.75 C-8.90721518 6.01870172 -6.74315884 5.90931949 -4.0625 6.0625 C-4.083125 5.258125 -4.10375 4.45375 -4.125 3.625 C-4.03366838 -0.11959638 -3.80090148 0.07756942 0 0 Z M-10.0625 22.0625 C-11.14818503 23.90517868 -11.14818503 23.90517868 -11.0625 26.0625 C-10.03377988 28.77745163 -10.03377988 28.77745163 -8.0625 31.0625 C-5.5875 32.0525 -5.5875 32.0525 -3.0625 33.0625 C-3.0625 28.4425 -3.0625 23.8225 -3.0625 19.0625 C-6.6220477 19.0625 -7.50799506 19.67829539 -10.0625 22.0625 Z M3.9375 52.0625 C3.9375 57.3425 3.9375 62.6225 3.9375 68.0625 C8.88213635 66.72686384 8.88213635 66.72686384 9.9375 64.0625 C10.43820321 60.68892666 10.43820321 60.68892666 9.9375 57.0625 C7.64550597 54.10199126 7.64550597 54.10199126 4.9375 52.0625 C4.6075 52.0625 4.2775 52.0625 3.9375 52.0625 Z " fill="#000000" transform="translate(399.0625,54.9375)"/>
<path d="M0 0 C0.7734375 -0.01675781 1.546875 -0.03351562 2.34375 -0.05078125 C5.1198718 0.41693492 5.82235695 1.06192487 7.5 3.3125 C7.86076355 6.06498718 7.86076355 6.06498718 7.84057617 9.4362793 C7.84034958 10.69736008 7.84012299 11.95844086 7.83988953 13.25773621 C7.82456963 14.63406732 7.80892164 16.01039482 7.79296875 17.38671875 C7.7873726 18.79490202 7.78310259 20.20309114 7.78010559 21.61128235 C7.76865818 25.31531944 7.73919235 29.0190029 7.70599365 32.72290039 C7.67529026 36.50336931 7.66159971 40.28389543 7.64648438 44.06445312 C7.61432216 51.48062986 7.56312755 58.89651536 7.5 66.3125 C8.75659424 66.28893433 8.75659424 66.28893433 10.03857422 66.26489258 C13.14336877 66.21379993 16.24794931 66.17616766 19.35302734 66.14770508 C21.35919374 66.12517749 23.36516526 66.0870643 25.37109375 66.04882812 C26.62792969 66.03916016 27.88476562 66.02949219 29.1796875 66.01953125 C30.92354736 65.99596558 30.92354736 65.99596558 32.70263672 65.97192383 C33.6257666 66.08431396 34.54889648 66.1967041 35.5 66.3125 C37.96324069 70.00736103 37.88991688 71.94543092 37.5 76.3125 C36.50952148 78.00634766 36.50952148 78.00634766 34.5 79.3125 C31.60518025 79.61093503 28.93005404 79.73282551 26.03515625 79.7109375 C24.79057899 79.71524277 24.79057899 79.71524277 23.52085876 79.71963501 C21.76658445 79.72167583 20.01228739 79.71614465 18.25805664 79.70361328 C15.57581504 79.68757959 12.89508489 79.70345023 10.21289062 79.72265625 C8.50780918 79.72067342 6.80272867 79.71682893 5.09765625 79.7109375 C4.29650894 79.71701019 3.49536163 79.72308289 2.66993713 79.7293396 C-0.39390215 79.69075008 -2.93230104 79.58977064 -5.71206665 78.23210144 C-8.39318327 75.35354038 -8.00121347 73.0929841 -8.00170898 69.21069336 C-8.00711197 68.49170364 -8.01251495 67.77271393 -8.01808167 67.03193665 C-8.03059109 64.65498718 -8.01406631 62.27924365 -7.99609375 59.90234375 C-7.99624867 58.25232377 -7.99773651 56.60230343 -8.00050354 54.95228577 C-8.00188846 51.49463816 -7.98931304 48.03740492 -7.96655273 44.57983398 C-7.93814527 40.14185449 -7.94091004 35.70456249 -7.95364285 31.26653194 C-7.96058793 27.8599304 -7.95282461 24.45348858 -7.94038582 21.04690742 C-7.93586146 19.41019871 -7.93554308 17.77347292 -7.93945122 16.13676262 C-7.94235265 13.85245298 -7.92591016 11.56910092 -7.90405273 9.28491211 C-7.89864975 7.9837999 -7.89324677 6.68268768 -7.88768005 5.34214783 C-7.75974564 4.34236404 -7.63181122 3.34258026 -7.5 2.3125 C-4.40219052 0.24729368 -3.5459519 0.01772976 0 0 Z " fill="#000000" transform="translate(237.5,58.6875)"/>
<path d="M0 0 C0.87527344 -0.02835938 1.75054687 -0.05671875 2.65234375 -0.0859375 C5.0625 0.375 5.0625 0.375 6.69184875 2.01971436 C8.44831121 5.03796632 8.4243175 7.03692925 8.40307617 10.52050781 C8.40284958 11.76149231 8.40262299 13.00247681 8.40238953 14.28106689 C8.38707089 15.63008995 8.37142293 16.97910931 8.35546875 18.328125 C8.34987075 19.7124587 8.34560161 21.09679836 8.34260559 22.48114014 C8.33117272 26.11776247 8.30171946 29.75402311 8.26849365 33.39050293 C8.23775888 37.10403462 8.22392845 40.81762672 8.20898438 44.53125 C8.17844088 51.81281903 8.11971866 59.09339593 8.0625 66.375 C17.3025 66.375 26.5425 66.375 36.0625 66.375 C38.33688837 70.92377674 38.13761657 72.53697544 37.0625 77.375 C34.46907019 79.96842981 32.67872006 79.62309752 29.14480591 79.65289307 C27.93230667 79.64682037 27.93230667 79.64682037 26.6953125 79.640625 C25.86417938 79.64253845 25.03304626 79.6444519 24.17672729 79.64642334 C22.41648049 79.64778565 20.65622365 79.64408602 18.89599609 79.63574219 C16.20517266 79.62507009 13.51502097 79.63562181 10.82421875 79.6484375 C9.11458186 79.64711538 7.40494539 79.64455191 5.6953125 79.640625 C4.89102814 79.64467346 4.08674377 79.64872192 3.25808716 79.65289307 C-0.72662854 79.61957756 -3.4728149 79.31660165 -6.9375 77.375 C-6.98377664 67.6307762 -7.01934536 57.88657841 -7.04112434 48.14226723 C-7.05157551 43.6179174 -7.0657589 39.09364259 -7.08837891 34.56933594 C-7.11005993 30.20568476 -7.12205858 25.84210587 -7.12725449 21.478405 C-7.13095879 19.81097653 -7.13819207 18.14355215 -7.14896011 16.47615433 C-7.1634122 14.14628705 -7.16548061 11.81672106 -7.16455078 9.48681641 C-7.17174133 8.79270157 -7.17893188 8.09858673 -7.18634033 7.38343811 C-7.16078863 1.49292904 -5.82898764 0.08559453 0 0 Z " fill="#000000" transform="translate(288.9375,58.625)"/>
<path d="M0 0 C0.7734375 0.00386719 1.546875 0.00773437 2.34375 0.01171875 C4.5 0.3125 4.5 0.3125 7.5 2.3125 C7.88768005 5.34214783 7.88768005 5.34214783 7.90405273 9.28491211 C7.91091599 10.00214951 7.91777924 10.7193869 7.92485046 11.45835876 C7.94319254 13.83572028 7.93927055 16.21242648 7.93359375 18.58984375 C7.93815224 20.23889889 7.94345681 21.88795212 7.94947815 23.53700256 C7.95842394 26.99634509 7.95596984 30.45545695 7.94604492 33.91479492 C7.93455701 38.35167167 7.95475592 42.78775237 7.98396206 47.2245245 C8.00229482 50.63116021 8.00203744 54.03760416 7.99632454 57.44427681 C7.99617094 59.08017658 8.00224676 60.71608905 8.01461601 62.35194206 C8.02946882 64.63870244 8.01889293 66.9239799 8.00170898 69.21069336 C8.00154282 70.51260117 8.00137665 71.81450897 8.00120544 73.15586853 C7.5 76.3125 7.5 76.3125 5.61170959 78.24732971 C3.0604287 79.53422475 1.68490031 79.52440055 -1.125 79.125 C-2.28902344 78.97998047 -2.28902344 78.97998047 -3.4765625 78.83203125 C-5.5 78.3125 -5.5 78.3125 -7.5 76.3125 C-7.76069641 73.32081604 -7.76069641 73.32081604 -7.7746582 69.43188477 C-7.77976913 68.72440094 -7.78488007 68.01691711 -7.79014587 67.28799438 C-7.80407561 64.94321291 -7.80308258 62.59872425 -7.80078125 60.25390625 C-7.80466644 58.62727244 -7.80900074 57.00063965 -7.81376648 55.37400818 C-7.82123603 51.96178908 -7.8209322 48.54967344 -7.81567383 45.13745117 C-7.80987928 40.76124439 -7.82680602 36.38546086 -7.8500185 32.00932407 C-7.8647395 28.64903785 -7.86562977 25.28885393 -7.86250877 21.92854118 C-7.86302285 20.31497293 -7.86827671 18.70139909 -7.87832069 17.08786201 C-7.89063606 14.8324637 -7.88392364 12.57789447 -7.87231445 10.32250977 C-7.87294388 9.03836685 -7.8735733 7.75422394 -7.8742218 6.4311676 C-7.5 3.3125 -7.5 3.3125 -6.11149597 1.39707947 C-3.97636724 -0.03991871 -2.55691553 -0.05539984 0 0 Z " fill="#000000" transform="translate(210.5,58.6875)"/>
<path d="M0 0 C1.17965332 -0.0038269 2.35930664 -0.00765381 3.57470703 -0.01159668 C6.06608942 -0.01431581 8.55750036 -0.0069547 11.04882812 0.00976562 C14.86132482 0.03117321 18.67193689 0.00996183 22.484375 -0.015625 C24.90625416 -0.01298173 27.32813214 -0.00785676 29.75 0 C30.88969238 -0.00809692 32.02938477 -0.01619385 33.20361328 -0.02453613 C41.09521621 0.06892806 41.09521621 0.06892806 45.09350586 2.43945312 C47.01820763 4.6994017 47.53476477 5.60186403 47.4375 8.53125 C47.43878906 9.19125 47.44007813 9.85125 47.44140625 10.53125 C46.62033468 13.43048204 45.18248187 14.62623023 42.875 16.53125 C40.29492188 17.03918457 40.29492188 17.03918457 37.34375 17.04882812 C36.23580078 17.06143677 35.12785156 17.07404541 33.98632812 17.08703613 C32.79458984 17.07893921 31.60285156 17.07084229 30.375 17.0625 C28.53325195 17.06824036 28.53325195 17.06824036 26.65429688 17.07409668 C24.05858541 17.07681842 21.46284664 17.06943911 18.8671875 17.05273438 C14.89000401 17.03133075 10.91462718 17.05252963 6.9375 17.078125 C4.41666267 17.07548177 1.89582647 17.07035691 -0.625 17.0625 C-1.81673828 17.07059692 -3.00847656 17.07869385 -4.23632812 17.08703613 C-5.89825195 17.06812317 -5.89825195 17.06812317 -7.59375 17.04882812 C-8.56763672 17.04564575 -9.54152344 17.04246338 -10.54492188 17.03918457 C-13.84651906 16.38920606 -15.03918812 15.11448024 -17.125 12.53125 C-17.69140625 10.53125 -17.69140625 10.53125 -17.6875 8.53125 C-17.70941406 7.87125 -17.73132813 7.21125 -17.75390625 6.53125 C-15.29649313 -1.28362899 -6.58132347 -0.04675689 0 0 Z " fill="#000000" transform="translate(381.125,342.46875)"/>
<path d="M0 0 C1.17965332 -0.0038269 2.35930664 -0.00765381 3.57470703 -0.01159668 C6.06608942 -0.01431581 8.55750036 -0.0069547 11.04882812 0.00976562 C14.86132482 0.03117321 18.67193689 0.00996183 22.484375 -0.015625 C24.90625416 -0.01298173 27.32813214 -0.00785676 29.75 0 C30.88969238 -0.00809692 32.02938477 -0.01619385 33.20361328 -0.02453613 C41.09521621 0.06892806 41.09521621 0.06892806 45.09350586 2.43945312 C47.01820763 4.6994017 47.53476477 5.60186403 47.4375 8.53125 C47.43878906 9.19125 47.44007813 9.85125 47.44140625 10.53125 C46.62033468 13.43048204 45.18248187 14.62623023 42.875 16.53125 C40.29492188 17.03918457 40.29492188 17.03918457 37.34375 17.04882812 C36.23580078 17.06143677 35.12785156 17.07404541 33.98632812 17.08703613 C32.79458984 17.07893921 31.60285156 17.07084229 30.375 17.0625 C28.53325195 17.06824036 28.53325195 17.06824036 26.65429688 17.07409668 C24.05858541 17.07681842 21.46284664 17.06943911 18.8671875 17.05273438 C14.89000401 17.03133075 10.91462718 17.05252963 6.9375 17.078125 C4.41666267 17.07548177 1.89582647 17.07035691 -0.625 17.0625 C-1.81673828 17.07059692 -3.00847656 17.07869385 -4.23632812 17.08703613 C-5.89825195 17.06812317 -5.89825195 17.06812317 -7.59375 17.04882812 C-8.56763672 17.04564575 -9.54152344 17.04246338 -10.54492188 17.03918457 C-13.84651906 16.38920606 -15.03918812 15.11448024 -17.125 12.53125 C-17.69140625 10.53125 -17.69140625 10.53125 -17.6875 8.53125 C-17.70941406 7.87125 -17.73132813 7.21125 -17.75390625 6.53125 C-15.29649313 -1.28362899 -6.58132347 -0.04675689 0 0 Z " fill="#000000" transform="translate(381.125,217.46875)"/>
<path d="M0 0 C1.10794922 -0.01260864 2.21589844 -0.02521729 3.35742188 -0.03820801 C4.54916016 -0.03011108 5.74089844 -0.02201416 6.96875 -0.01367188 C8.19658203 -0.01749878 9.42441406 -0.02132568 10.68945312 -0.02526855 C13.28516459 -0.02799029 15.88090336 -0.02061099 18.4765625 -0.00390625 C22.45374599 0.01749738 26.42912282 -0.0037015 30.40625 -0.02929688 C32.92708733 -0.02665365 35.44792353 -0.02152878 37.96875 -0.01367188 C39.16048828 -0.0217688 40.35222656 -0.02986572 41.58007812 -0.03820801 C43.24200195 -0.01929504 43.24200195 -0.01929504 44.9375 0 C45.91138672 0.00318237 46.88527344 0.00636475 47.88867188 0.00964355 C51.22377723 0.66621875 52.41738661 1.85047812 54.46875 4.51757812 C54.93392421 8.23897177 54.97729958 10.55133392 53.21875 13.89257812 C50.10960977 16.77963691 46.59805152 16.64478619 42.50415039 16.6628418 C41.51955338 16.66922165 40.53495636 16.6756015 39.52052307 16.68217468 C38.46316452 16.68328751 37.40580597 16.68440033 36.31640625 16.68554688 C35.22412216 16.68887527 34.13183807 16.69220367 33.00645447 16.69563293 C30.69742249 16.70069337 28.38838322 16.70304153 26.0793457 16.70288086 C22.54821733 16.70506762 19.01740125 16.72323367 15.48632812 16.7421875 C13.24218857 16.74512154 10.99804753 16.74710626 8.75390625 16.74804688 C7.69857193 16.75523239 6.64323761 16.76241791 5.55592346 16.76982117 C4.56817429 16.76674454 3.58042511 16.76366791 2.56274414 16.76049805 C1.69766739 16.76192307 0.83259064 16.76334808 -0.05870056 16.76481628 C-2.90360851 16.4803448 -4.98377224 15.81230627 -7.53125 14.51757812 C-10.01163907 10.79699452 -9.99462203 8.91961242 -9.53125 4.51757812 C-6.64567754 0.75041961 -4.6761272 0.0152802 0 0 Z " fill="#000000" transform="translate(373.53125,280.482421875)"/>
</svg>
