<?xml version="1.0" encoding="UTF-8"?>
<svg version="1.1" xmlns="http://www.w3.org/2000/svg" width="512" height="512">
<path d="M0 0 C0.99404982 -0.00226556 1.98809964 -0.00453111 3.01227218 -0.00686532 C6.32906031 -0.01317391 9.64580725 -0.01237798 12.96260071 -0.0115509 C15.34659884 -0.01454438 17.73059649 -0.01794734 20.11459351 -0.02172852 C25.91047328 -0.0296381 31.70634064 -0.03278238 37.50222554 -0.03334089 C42.21731374 -0.03381716 46.93239859 -0.03587741 51.64748573 -0.03904152 C65.03672555 -0.04784266 78.42595738 -0.05246182 91.81520011 -0.05171105 C92.89653255 -0.05165111 92.89653255 -0.05165111 93.99971008 -0.05158997 C94.72148604 -0.05154909 95.443262 -0.0515082 96.18690995 -0.05146609 C107.87557922 -0.05105992 119.56421624 -0.06062341 131.25287618 -0.07472833 C143.27539645 -0.08912079 155.29790101 -0.09599692 167.3204301 -0.09513456 C174.06179563 -0.09480354 180.80312736 -0.0975084 187.54448509 -0.10831261 C193.8884309 -0.11802238 200.23230551 -0.11805302 206.57625389 -0.11079597 C208.8977214 -0.10975367 211.21919341 -0.11209188 213.54065323 -0.11815643 C234.79603291 -0.17006392 251.99363758 0.58591252 268.48725891 15.50871277 C276.28752856 24.13006343 282.96889445 34.62633666 282.99647999 46.63728333 C283.00093783 47.54004659 283.00539568 48.44280985 283.00998861 49.37292957 C283.00971206 50.85480778 283.00971206 50.85480778 283.00942993 52.36662292 C283.01310662 53.4192139 283.01678331 54.47180487 283.02057141 55.55629253 C283.03161365 59.09512501 283.03545305 62.63392813 283.03926086 66.17277527 C283.04552518 68.7055877 283.05217195 71.23839921 283.05917358 73.77120972 C283.07840501 81.38108537 283.08900328 88.99095587 283.09790137 96.60084963 C283.10228751 100.18760038 283.10765355 103.77434966 283.11289024 107.36109924 C283.12990262 119.29030043 283.14439501 131.21950071 283.15163898 143.14871216 C283.15354878 146.24348451 283.15546912 149.33825685 283.15742493 152.43302917 C283.15790867 153.20218867 283.15839241 153.97134816 283.15889081 154.76381552 C283.16718445 167.21326376 283.19251003 179.6626157 283.2250056 192.11202192 C283.25812193 204.9039488 283.27609195 217.69582683 283.27928323 230.48779678 C283.28144432 237.6657483 283.29013378 244.84355948 283.3157444 252.02146912 C283.3397972 258.77826827 283.34324845 265.53477191 283.33298302 272.29162025 C283.33248811 274.76670483 283.33879502 277.24180191 283.35253906 279.71684837 C283.45389092 299.05630552 281.77967781 314.38720245 267.86225891 329.13371277 C254.76496823 339.99831094 241.43183396 343.2898814 224.65531921 343.27415466 C223.15305218 343.27861135 223.15305218 343.27861135 221.62043631 343.28315806 C218.27834646 343.29180101 214.93629262 343.29334957 211.5941925 343.29484558 C209.19211247 343.29947687 206.79003317 343.30450195 204.38795471 343.30989075 C197.87116863 343.32298673 191.3543894 343.32949154 184.8375926 343.33390141 C180.76226262 343.33667153 176.68693499 343.34091025 172.6116066 343.34540558 C161.31018155 343.35759205 150.00875836 343.36789271 138.70732689 343.37128067 C137.62398259 343.37161002 137.62398259 343.37161002 136.51875255 343.37194602 C135.43293859 343.37227344 135.43293859 343.37227344 134.32518899 343.37260747 C132.85854173 343.37305092 131.39189446 343.37349749 129.92524719 343.37394714 C129.19775232 343.37416857 128.47025744 343.37439 127.72071727 343.37461814 C115.94217742 343.37856317 104.16369954 343.39601097 92.38518362 343.41930667 C80.26886734 343.44307546 68.15258208 343.45548502 56.03624213 343.45664859 C49.24284524 343.45756223 42.44952914 343.46323572 35.65615463 343.4814682 C29.26211491 343.49799758 22.86822803 343.50008071 16.4741745 343.49132919 C14.13538579 343.49056143 11.79658869 343.4948669 9.45782089 343.50478745 C-10.95662416 343.5862611 -29.30450173 342.54333379 -44.88383484 327.61418152 C-54.23904308 317.3185884 -59.28008646 304.74418192 -59.25126648 290.85295105 C-59.25115318 289.02173203 -59.25115318 289.02173203 -59.2510376 287.15351868 C-59.24587631 285.85018585 -59.24071503 284.54685303 -59.23539734 283.20402527 C-59.23353009 281.84496615 -59.23210764 280.48590635 -59.23110962 279.12684631 C-59.22730857 275.56602591 -59.21749911 272.0052469 -59.20640564 268.44444275 C-59.19613944 264.80441345 -59.19160088 261.1643774 -59.18656921 257.52433777 C-59.17587448 250.3941126 -59.15882731 243.2639154 -59.13774109 236.13371277 C-60.0773468 235.82718781 -61.01695251 235.52066284 -61.98503113 235.20484924 C-64.83051275 234.23809392 -67.32677866 233.1290533 -69.98149109 231.73527527 C-71.3388739 231.02564636 -71.3388739 231.02564636 -72.72367859 230.30168152 C-73.68531921 229.79250183 -74.64695984 229.28332214 -75.63774109 228.75871277 C-77.15754578 227.96013855 -77.15754578 227.96013855 -78.70805359 227.14543152 C-86.46939166 223.05291455 -94.1739118 218.86008534 -101.86430359 214.63615417 C-108.41181647 211.04877933 -115.00985156 207.5700022 -121.63774109 204.13371277 C-125.47317142 202.13771346 -129.30628023 200.13732074 -133.13774109 198.13371277 C-134.66600525 197.33538025 -134.66600525 197.33538025 -136.22514343 196.5209198 C-139.26533992 194.9252102 -142.29628106 193.31313109 -145.32524109 191.69621277 C-146.715495 190.97014832 -146.715495 190.97014832 -148.13383484 190.22941589 C-154.14296815 186.99545867 -158.59837388 183.71820262 -161.13774109 177.13371277 C-161.50883484 174.61808777 -161.50883484 174.61808777 -161.57524109 171.88371277 C-161.61520203 170.99168152 -161.65516296 170.09965027 -161.69633484 169.18058777 C-160.61922741 163.30545634 -157.70954392 159.27027636 -152.90727234 155.79777527 C-151.59938825 155.09691666 -150.27916621 154.41880489 -148.95024109 153.75871277 C-148.19468933 153.36063416 -147.43913757 152.96255554 -146.66069031 152.55241394 C-144.88198807 151.61728865 -143.09834399 150.69153049 -141.31108093 149.77287292 C-137.65137288 147.88248365 -134.01281883 145.95442205 -130.37602234 144.02043152 C-124.54740211 140.9228984 -118.71379657 137.83505122 -112.87602234 134.75480652 C-104.88466452 130.53597912 -96.91337258 126.28052964 -88.95024109 122.00871277 C-87.80458679 121.39479675 -86.6589325 120.78088074 -85.4785614 120.14836121 C-80.69456752 117.58364418 -75.91312431 115.01461783 -71.14164734 112.42668152 C-70.06983215 111.84781189 -70.06983215 111.84781189 -68.97636414 111.25724792 C-67.19254952 110.29337147 -65.41110371 109.32511438 -63.62992859 108.35636902 C-61.13774109 107.13371277 -61.13774109 107.13371277 -59.13774109 107.13371277 C-59.14773384 106.02736481 -59.14773384 106.02736481 -59.15792847 104.89866638 C-59.21840826 97.89755024 -59.26390086 90.89652682 -59.2931776 83.89522171 C-59.30873584 80.29703238 -59.32979022 76.69906155 -59.36405945 73.10099792 C-59.39700925 69.61909127 -59.41466779 66.13739281 -59.42237282 62.6553421 C-59.43049352 60.70138676 -59.4538538 58.74751346 -59.47763062 56.79368591 C-59.48064329 40.56838132 -55.01033215 26.26007017 -43.61430359 14.38761902 C-31.04256777 2.94614967 -16.47145891 -0.0278098 0 0 Z M-33.45024109 30.44621277 C-39.24615376 37.70720337 -41.26007617 45.62213034 -41.26371765 54.77238464 C-41.26558578 55.41857254 -41.26745392 56.06476044 -41.26937866 56.73052979 C-41.27336542 58.12623702 -41.27545591 59.5219507 -41.27584076 60.91766357 C-41.27927538 63.88913769 -41.30065585 66.86039669 -41.32107162 69.83179474 C-41.35901059 75.35645569 -41.39035239 80.88087902 -41.38822937 86.40568542 C-41.38744192 90.25673468 -41.41081122 94.10698433 -41.45011139 97.95782471 C-41.46056111 99.42176722 -41.46210288 100.88580211 -41.45446014 102.34976196 C-41.44482455 104.39906823 -41.46603578 106.44595326 -41.4941864 108.49504089 C-41.49783203 109.65910461 -41.50147766 110.82316833 -41.50523376 112.02250671 C-42.47566416 116.79590426 -45.42689594 118.99521693 -49.35990906 121.61247253 C-50.1090155 122.01264587 -50.85812195 122.41281921 -51.62992859 122.82511902 C-52.48779968 123.28853699 -53.34567078 123.75195496 -54.22953796 124.22941589 C-55.147995 124.71345886 -56.06645203 125.19750183 -57.01274109 125.69621277 C-57.9801825 126.21506042 -58.9476239 126.73390808 -59.94438171 127.26847839 C-67.77378093 131.45324432 -75.65079789 135.54854467 -83.53227234 139.63420105 C-90.97536788 143.50014085 -98.33964161 147.49714546 -105.68583679 151.54362488 C-114.07437738 156.14505825 -122.57017186 160.53267917 -131.10404968 164.858078 C-132.10903503 165.37313904 -133.11402039 165.88820007 -134.14945984 166.41886902 C-135.48690247 167.09768127 -135.48690247 167.09768127 -136.85136414 167.79020691 C-138.99282652 169.04855902 -140.49170587 170.29084326 -142.13774109 172.13371277 C-127.88168467 179.84773537 -113.59348777 187.49699822 -99.26274109 195.07121277 C-78.59708003 205.99834646 -78.59708003 205.99834646 -68.43113708 211.42671204 C-66.70291784 212.34893283 -64.973334 213.268595 -63.24369812 214.18815613 C-45.70225027 223.56920358 -45.70225027 223.56920358 -42.13774109 227.13371277 C-41.87945557 229.88847351 -41.87945557 229.88847351 -41.86650085 233.44425964 C-41.86127411 234.09173157 -41.85604736 234.73920349 -41.85066223 235.40629578 C-41.84040916 236.81512016 -41.83463955 238.22398255 -41.83278084 239.63284302 C-41.82911755 241.8706573 -41.81238746 244.10802814 -41.79202271 246.3457489 C-41.73664186 252.70923049 -41.70609255 259.07278043 -41.68144226 265.43644714 C-41.66545442 269.32926765 -41.63510685 273.22178082 -41.59667778 277.11444092 C-41.58511188 278.5910004 -41.57909817 280.06761519 -41.57899666 281.54421997 C-41.57773479 295.02882589 -39.84212517 305.65511362 -30.54399109 315.88761902 C-22.05925824 323.87207281 -11.47090582 325.28309414 -0.32279968 325.28088379 C1.17055546 325.28639882 1.17055546 325.28639882 2.6940794 325.29202527 C6.03399863 325.30304849 9.37388673 325.30690368 12.71382141 325.31071472 C15.1072296 325.31698047 17.50063682 325.32362737 19.89404297 325.33062744 C27.07932552 325.34984325 34.26460862 325.36045457 41.44990969 325.36935523 C44.83828605 325.37374388 48.22666087 325.37910924 51.61503601 325.3843441 C62.88717321 325.40135414 74.15930946 325.41584624 85.43145752 325.42309284 C88.35451763 325.42500256 91.27757774 325.42692292 94.20063782 325.42887878 C95.29033243 325.42960439 95.29033243 325.42960439 96.40204108 325.43034466 C108.15883457 325.43863727 119.91552607 325.46396214 131.67227507 325.49645946 C143.75798079 325.52959212 155.84363479 325.54754725 167.92938614 325.55073708 C174.70885293 325.55289658 181.48817103 325.56156258 188.26759338 325.58719826 C194.65013142 325.61052834 201.03240263 325.61469213 207.41497231 325.60443687 C209.75095827 325.60394259 212.08695758 325.61023116 214.42290306 325.62399292 C236.08854756 325.96000485 236.08854756 325.96000485 254.92475891 316.19230652 C262.74370791 307.88467321 265.16547144 298.96833825 265.12968445 287.87461853 C265.13648112 286.32780407 265.13648112 286.32780407 265.14341509 284.74974084 C265.15607232 281.29532912 265.15443784 277.8410748 265.15278625 274.38664246 C265.1587707 271.90940142 265.16557605 269.43216225 265.17314148 266.95492554 C265.18898182 260.92447792 265.19525029 254.89409215 265.19636624 248.86362949 C265.19731759 243.95967628 265.20143224 239.05573594 265.20776749 234.1517868 C265.22537609 220.23749111 265.23460706 206.32322622 265.23310654 192.4089193 C265.23302663 191.65922908 265.23294671 190.90953885 265.23286438 190.13713074 C265.23274174 189.0112166 265.23274174 189.0112166 265.23261662 187.86255673 C265.23180403 175.70287103 265.25093571 163.5433093 265.27914111 151.38365945 C265.30789696 138.88773526 265.32167989 126.39187147 265.31995356 113.89591336 C265.31929055 106.88461906 265.32474379 99.87345468 265.34630966 92.86219025 C265.36646848 86.26625934 265.36582016 79.67055548 265.3512764 73.0745945 C265.34918645 70.65672467 265.35390018 68.23883771 265.36599731 65.82099724 C265.38146889 62.5139244 265.37212798 59.2077946 265.35673523 55.90074158 C265.37216592 54.4739584 265.37216592 54.4739584 265.38790834 53.01835132 C265.29463983 43.91712538 262.30928796 34.78367494 255.86225891 28.13371277 C245.52704943 19.65087751 235.98117613 17.98086991 222.91397095 17.99327087 C221.92823709 17.99029975 220.94250324 17.98732863 219.92689866 17.98426747 C216.6323128 17.97561367 213.33776342 17.97407504 210.04316711 17.97257996 C207.6773979 17.96794945 205.31162943 17.96292448 202.94586182 17.95753479 C195.85485301 17.94306585 188.76385202 17.93702971 181.67283109 17.93213928 C178.3276648 17.92955689 174.98249997 17.92576722 171.63733482 17.92201996 C160.50837131 17.9098326 149.37940969 17.89953201 138.25043964 17.89614487 C137.18334365 17.89581552 137.18334365 17.89581552 136.09469016 17.89547952 C135.38165495 17.89526124 134.66861975 17.89504296 133.93397743 17.89481807 C132.4892542 17.89437461 131.04453097 17.89392805 129.59980774 17.89347839 C128.8831852 17.89325696 128.16656266 17.89303553 127.42822429 17.89280739 C115.82286554 17.88886144 104.21756965 17.87141124 92.61223517 17.84811887 C80.67902217 17.82436299 68.74584067 17.8119411 56.81260365 17.81077695 C50.11985597 17.8098626 43.42720267 17.80384917 36.73447609 17.78595734 C30.4364859 17.76944777 24.1386509 17.76733527 17.84064674 17.77609634 C15.53488244 17.77686515 13.22910969 17.7725447 10.92336655 17.76263809 C-13.51543218 17.52540277 -13.51543218 17.52540277 -33.45024109 30.44621277 Z " fill="#000000" transform="translate(229.1377410888672,92.86628723144531)"/>
<path d="M0 0 C0.91631347 -0.00453111 1.83262693 -0.00906223 2.77670747 -0.01373065 C5.83640433 -0.02635538 8.89592274 -0.0247555 11.9556427 -0.02310181 C14.1539279 -0.02908832 16.35221099 -0.03589415 18.55049133 -0.04345703 C24.5155796 -0.06111335 30.48061047 -0.06581231 36.44572234 -0.0670886 C40.17546353 -0.06851116 43.90519018 -0.07278279 47.63492775 -0.07808304 C59.98373285 -0.09562893 72.33250734 -0.10492344 84.68132444 -0.10342209 C85.34628795 -0.10334218 86.01125145 -0.10326227 86.69636536 -0.10317993 C87.36214744 -0.10309817 88.02792953 -0.10301641 88.71388683 -0.10293217 C99.49479454 -0.10211991 110.27556233 -0.12124449 121.05642959 -0.14945666 C132.14439685 -0.17824185 143.23230648 -0.19162825 154.32031327 -0.19026911 C160.53800968 -0.18976008 166.75554776 -0.19541077 172.97321129 -0.21662521 C178.82475156 -0.23604542 184.67598308 -0.23610597 190.52753448 -0.22159195 C192.66881831 -0.21950735 194.81012166 -0.22418381 196.95137215 -0.23631287 C215.11333955 -0.33248391 229.95982788 2.30250464 243.69709778 15.26742554 C254.67948035 28.5067055 257.86076925 41.8857052 257.94709778 58.89242554 C257.97803528 60.42769897 257.97803528 60.42769897 258.00959778 61.99398804 C258.05791211 71.27034053 258.05791211 71.27034053 254.69709778 75.26742554 C252.16915865 77.79536466 250.32495613 77.61855976 246.86506653 77.82601929 C243.19202226 76.8796313 241.90534442 75.3354869 239.69709778 72.26742554 C239.01119741 68.58085322 239.05235563 64.94606346 239.07209778 61.20492554 C238.80022961 48.28111836 238.059622 37.08410205 228.69709778 27.26742554 C222.2048185 22.31603532 215.73188061 19.16162373 207.50959778 19.22836304 C206.60854309 19.23400269 205.7074884 19.23964233 204.77912903 19.24545288 C203.74852356 19.25632935 203.74852356 19.25632935 202.69709778 19.26742554 C201.87302429 20.94699341 201.87302429 20.94699341 201.03230286 22.66049194 C198.98115309 26.8354929 196.91922017 31.00509116 194.8540802 35.17318726 C193.96378386 36.97382656 193.0763718 38.77589507 192.19197083 40.57943726 C190.91618956 43.17981978 189.62993461 45.77479207 188.34162903 48.36898804 C187.95183365 49.16922394 187.56203827 49.96945984 187.16043091 50.79394531 C184.00213062 57.11305683 180.64397816 62.68623323 174.19709778 66.07992554 C173.46491028 66.47824585 172.73272278 66.87656616 171.97834778 67.28695679 C167.88937513 69.04437483 163.91624299 69.39334843 159.50028992 69.41459656 C157.96141365 69.42532951 157.96141365 69.42532951 156.39144897 69.4362793 C155.27656601 69.4389682 154.16168304 69.4416571 153.01301575 69.44442749 C151.23889061 69.45428429 151.23889061 69.45428429 149.42892456 69.46434021 C145.51571797 69.48404604 141.60252485 69.49573725 137.68928528 69.50570679 C136.33707281 69.50975761 134.98486054 69.51387462 133.63264847 69.51805687 C127.27613893 69.53709379 120.91964087 69.5513264 114.56310833 69.55966884 C107.25002606 69.56942766 99.93724756 69.59571766 92.62427223 69.63616973 C86.95610337 69.66643646 81.28802106 69.68114776 75.61977303 69.68444985 C72.24184473 69.68678884 68.86424147 69.69559701 65.4864006 69.72091103 C61.7098725 69.74534626 57.93413051 69.74432868 54.157547 69.73739624 C53.05480942 69.7502063 51.95207184 69.76301636 50.81591797 69.7762146 C42.02951178 69.71770955 33.62708902 68.20188449 26.88069153 62.20101929 C22.92574336 57.77538404 20.37372603 52.61807094 17.75959778 47.32992554 C17.24816223 46.32244263 16.73672668 45.31495972 16.20979309 44.27694702 C14.69226673 41.28023733 13.1932269 38.27486263 11.69709778 35.26742554 C10.84778054 33.57945064 9.99759493 31.89191223 9.14631653 30.20492554 C7.31440696 26.5666314 5.49969102 22.92032772 3.69709778 19.26742554 C-5.77379092 18.54199576 -13.19439691 20.43303657 -20.61540222 26.51742554 C-26.72909752 32.28529565 -30.93212416 39.20785951 -31.55590189 47.71981025 C-31.55731073 49.00012256 -31.55871958 50.28043487 -31.56017113 51.59954453 C-31.5636772 52.31934207 -31.56718328 53.03913961 -31.5707956 53.7807492 C-31.58010151 56.1933571 -31.5751884 58.60572318 -31.57032776 61.01834106 C-31.57406443 62.76530982 -31.57866602 64.51227691 -31.5840584 66.25924134 C-31.59630179 71.06066556 -31.59602636 75.86202017 -31.59366965 80.66345644 C-31.59326182 85.84151568 -31.60429741 91.0195525 -31.61378479 96.19760132 C-31.63040323 106.34288995 -31.63589472 116.48815534 -31.63700955 126.63345644 C-31.63795964 134.87979922 -31.64206802 143.12613432 -31.6484108 151.37247467 C-31.6660257 174.74948509 -31.67524931 198.12647713 -31.67374985 221.50349423 C-31.67366994 222.7639607 -31.67359002 224.02442717 -31.67350769 225.3230896 C-31.67342593 226.58509415 -31.67334417 227.8470987 -31.67325993 229.14734581 C-31.67244701 249.60033006 -31.69158544 270.05324067 -31.71978442 290.50620362 C-31.74850672 311.50433754 -31.76232507 332.50243554 -31.76059687 353.50058961 C-31.75993273 365.29057312 -31.7654355 377.08047943 -31.78695297 388.87044525 C-31.80515616 398.90882525 -31.80951917 408.94709307 -31.79593413 418.98548242 C-31.7894001 424.10671539 -31.7893031 429.22773308 -31.80664062 434.34894562 C-31.82235701 439.03956667 -31.81952227 443.72980149 -31.80207236 448.42041305 C-31.79899931 450.11488396 -31.80264634 451.80938359 -31.81379251 453.50382063 C-31.88791952 465.57459009 -30.84654777 475.3789522 -22.22868347 484.51351929 C-14.80673376 491.27306375 -7.21293747 493.57180997 2.66542053 493.53485107 C3.55778939 493.53938219 4.45015825 493.5439133 5.36956859 493.54858172 C8.35412343 493.56122282 11.33849572 493.55960552 14.32307434 493.55795288 C16.46534459 493.56393835 18.60761268 493.57074394 20.74987793 493.57830811 C26.56613582 493.59597444 32.38233486 493.60066379 38.19861698 493.60193968 C41.83402938 493.60336159 45.46942683 493.60763198 49.10483551 493.61293411 C61.79233754 493.63143721 74.47979755 493.63960446 87.16731262 493.63803101 C98.9858978 493.63682987 110.80430027 493.65792622 122.62283921 493.68951833 C132.77590742 493.71568936 142.92891599 493.72639793 153.08201766 493.72512019 C159.143171 493.72461076 165.204162 493.73028363 171.26528168 493.75147629 C176.9682447 493.77087215 182.67089078 493.77097366 188.37386513 493.75644302 C190.46277391 493.75435545 192.5517026 493.75905269 194.64057732 493.77116394 C209.20931335 494.13920369 209.20931335 494.13920369 222.69709778 489.26742554 C223.36239124 488.8896314 224.02768471 488.51183727 224.71313858 488.12259483 C231.78354727 483.87099649 235.4752692 477.01336672 237.44709778 469.20492554 C238.06176396 466.4193863 238.62593206 463.62846137 239.17756653 460.82992554 C239.81462087 457.86789508 240.39308036 455.64160082 242.32209778 453.26742554 C245.83347589 451.78895054 248.95047544 451.60580434 252.69709778 452.26742554 C255.13459778 453.70492554 255.13459778 453.70492554 256.69709778 456.26742554 C259.19084832 466.57492776 256.25110754 477.7359391 251.19709778 486.89633179 C243.05654876 499.76433505 232.48209184 507.5970342 217.77888012 511.81811875 C214.15362504 512.60055007 210.44850695 512.41539241 206.75495911 512.41459656 C205.84120892 512.41827325 204.92745872 512.42194993 203.98601913 512.42573804 C200.9170501 512.43677138 197.84811493 512.44061817 194.77912903 512.44442749 C192.58128756 512.45069251 190.38344716 512.45733935 188.18560791 512.46434021 C180.9602787 512.48538223 173.73494929 512.49574424 166.50959778 512.50570679 C164.02103158 512.5097546 161.5324655 512.51387153 159.04389954 512.51805687 C148.02043873 512.53601761 136.99698251 512.5503947 125.97350967 512.55823327 C123.95705596 512.5596717 121.94060225 512.56112308 119.92414856 512.56259155 C118.92293067 512.56331716 118.92293067 512.56331716 117.90148616 512.56405743 C107.1009951 512.57234875 96.30061511 512.59767051 85.5001725 512.63017223 C74.39874763 512.66330581 63.2973689 512.68092785 52.19589329 512.68444985 C45.96808139 512.6867977 39.74044501 512.69572366 33.51268005 512.72091103 C27.64888178 512.74424265 21.78537393 512.74840434 15.92154121 512.73814964 C13.77541702 512.73765538 11.62927829 512.74394334 9.48319817 512.75770569 C-8.21774288 512.86481828 -22.67645435 510.67927186 -36.05290222 498.01742554 C-48.29722852 485.08206143 -50.90862567 470.76829014 -50.81083679 453.58065796 C-50.81545224 451.80518426 -50.82180946 450.02971439 -50.82974577 448.25425243 C-50.84637378 443.40175008 -50.83822252 438.54956424 -50.8258009 433.69706106 C-50.81672592 428.45361835 -50.83073226 423.2102289 -50.84172058 417.96679688 C-50.85948427 407.70531881 -50.85567538 397.44395794 -50.84407002 387.18247533 C-50.83502752 378.84093977 -50.83381524 370.499437 -50.83816528 362.15789795 C-50.83877822 360.96958317 -50.83939115 359.78126839 -50.84002265 358.55694407 C-50.84130159 356.14272125 -50.84259844 353.72849843 -50.84391302 351.31427562 C-50.85531252 328.68907592 -50.84221497 306.06394111 -50.82071155 283.43875206 C-50.80284116 264.03558208 -50.80594545 244.63250784 -50.8243866 225.2293396 C-50.84580441 202.68374843 -50.85421394 180.1382141 -50.84193754 157.59261417 C-50.84066338 155.18739383 -50.83940589 152.78217348 -50.83816528 150.37695312 C-50.83754818 149.19361411 -50.83693108 148.01027509 -50.83629528 146.79107732 C-50.83284512 138.46192094 -50.83866353 130.13280068 -50.8480835 121.8036499 C-50.85931495 111.64981183 -50.85623923 101.49609742 -50.83496052 91.34227347 C-50.82446563 86.1640529 -50.82030173 80.98603831 -50.83355713 75.80781937 C-50.84551908 71.063042 -50.8388559 66.31866063 -50.81764692 61.57391894 C-50.81319695 59.86210094 -50.81541082 58.15024915 -50.82515007 56.43845308 C-50.91220687 39.85893243 -47.24768425 26.51909027 -35.80290222 14.07992554 C-26.02387639 4.68555125 -13.4683528 -0.0492559 0 0 Z M24.69709778 18.26742554 C26.69794239 24.26995937 29.16095321 29.67173651 31.94709778 35.32992554 C32.41244934 36.31025757 32.8778009 37.2905896 33.35725403 38.30062866 C34.05914856 39.72472046 34.05914856 39.72472046 34.77522278 41.17758179 C35.19191223 42.03488892 35.60860168 42.89219604 36.03791809 43.77548218 C38.18348223 46.99793261 40.28601343 49.4342631 43.69709778 51.26742554 C47.53985955 51.99377797 51.32153421 51.93042325 55.22273254 51.88265991 C56.37625214 51.88820892 57.52977173 51.89375793 58.71824646 51.8994751 C62.52542349 51.91127137 66.3314105 51.88699544 70.13850403 51.86117554 C72.78595933 51.85946451 75.43341632 51.85953004 78.08087158 51.86129761 C83.62651475 51.8612441 89.17181642 51.84152726 94.71736145 51.80941772 C101.1226931 51.77250947 107.52757794 51.76374532 113.93300205 51.77071524 C120.10429776 51.77702651 126.27541613 51.76604172 132.44668388 51.74674988 C135.0689564 51.73971536 137.69124243 51.73659589 140.31352425 51.73744202 C143.97621738 51.73564603 147.63827429 51.71428029 151.30085754 51.68734741 C152.9288604 51.69174332 152.9288604 51.69174332 154.5897522 51.69622803 C161.67329467 51.70518288 161.67329467 51.70518288 167.69709778 48.26742554 C169.6472868 45.35953582 169.6472868 45.35953582 171.24787903 41.91976929 C171.55154892 41.30726822 171.85521881 40.69476715 172.16809082 40.06370544 C172.80388115 38.77505281 173.43299504 37.48308687 174.05574036 36.18807983 C175.01127687 34.20143456 175.98596794 32.22516503 176.9646759 30.24984741 C180.25376687 24.49526591 180.25376687 24.49526591 181.69709778 18.26742554 C129.88709778 18.26742554 78.07709778 18.26742554 24.69709778 18.26742554 Z " fill="#000000" transform="translate(50.30290222167969,-0.267425537109375)"/>
<path d="M0 0 C1.18335938 0.4125 2.36671875 0.825 3.5859375 1.25 C25.24437637 9.66475771 40.43076383 26.06423188 50.375 46.6875 C55.35275511 58.00810096 57.10623292 69.18104842 57.4296875 81.44921875 C58.1290257 97.85452731 62.93399437 112.85254157 68.25 128.25 C68.90088817 130.16236987 69.55063198 132.07512963 70.19921875 133.98828125 C72.79034758 141.61852942 75.38573442 149.24667789 78.04492188 156.85351562 C78.69167057 158.73037769 79.33816473 160.60732749 79.984375 162.484375 C80.44024994 163.76698212 80.44024994 163.76698212 80.90533447 165.07550049 C82.7742927 170.54672387 84.04712519 175.56613135 82.30078125 181.29296875 C79.12417059 187.38251883 75.61035939 190.75805026 69 193 C66.31071472 193.24050903 66.31071472 193.24050903 63.38354492 193.22705078 C62.28278122 193.22689972 61.18201752 193.22674866 60.04789734 193.22659302 C58.28202019 193.21110916 58.28202019 193.21110916 56.48046875 193.1953125 C55.26676102 193.1924826 54.05305328 193.18965271 52.80256653 193.18673706 C48.93077689 193.17555308 45.05921959 193.1504513 41.1875 193.125 C38.56055022 193.11496792 35.93359681 193.10584246 33.30664062 193.09765625 C26.87101464 193.07561954 20.43552392 193.04215941 14 193 C14.00770416 193.61483749 14.01540833 194.22967499 14.02334595 194.86314392 C14.02933807 195.67135086 14.0353302 196.4795578 14.04150391 197.31225586 C14.04920807 198.11271835 14.05691223 198.91318085 14.06484985 199.73789978 C13.83098662 207.89554473 9.22407772 215.05492366 4 221 C3.49855469 221.60585938 2.99710938 222.21171875 2.48046875 222.8359375 C-3.34149318 229.32367123 -12.22524216 234.40744367 -21.02368164 235.17700195 C-35.95126228 235.60516133 -47.27939363 234.16052566 -59 224 C-67.29201963 215.16788713 -72.09565912 205.18772659 -72 193 C-72.99145775 193.00999275 -72.99145775 193.00999275 -74.00294495 193.02018738 C-80.89750289 193.08668366 -87.79196935 193.13186009 -94.68676758 193.16479492 C-97.2580943 193.17985844 -99.82939543 193.2003132 -102.40063477 193.22631836 C-106.10178962 193.26280761 -109.802604 193.27975121 -113.50390625 193.29296875 C-114.64896133 193.30845261 -115.79401642 193.32393646 -116.97377014 193.33988953 C-123.96042588 193.34135458 -129.49621253 193.07104878 -134.9609375 188.28125 C-135.42757812 187.6934375 -135.89421875 187.105625 -136.375 186.5 C-136.85710937 185.9121875 -137.33921875 185.324375 -137.8359375 184.71875 C-140.86477746 180.24663731 -140.53616409 175.16531616 -140 170 C-138.80258758 165.20188399 -137.16926199 160.57232507 -135.51171875 155.91796875 C-135.04654892 154.57387806 -134.58294059 153.22924606 -134.12080383 151.8841095 C-132.9069226 148.36152273 -131.67601545 144.84515627 -130.44006348 141.33026123 C-128.46943436 135.71932236 -126.52191069 130.10039116 -124.58045387 124.47930336 C-123.90745947 122.54022826 -123.22524219 120.60460276 -122.54167175 118.66923523 C-118.25286171 106.33965798 -115.70776618 94.71792626 -115.0625 81.6875 C-113.3741357 55.43899132 -104.56432728 33.21676227 -84.55224609 15.30224609 C-75.83332672 7.98756916 -65.66518814 2.83799158 -55 -1 C-54.05769531 -1.3403125 -53.11539063 -1.680625 -52.14453125 -2.03125 C-35.8008092 -6.79541189 -15.94398513 -5.65640271 0 0 Z M-79 36 C-79.59425781 36.56074219 -80.18851562 37.12148437 -80.80078125 37.69921875 C-84.47716503 41.47469644 -86.78649251 46.04493542 -89.1875 50.6875 C-89.52104492 51.32260498 -89.85458984 51.95770996 -90.19824219 52.61206055 C-95.5353197 63.41117736 -96.52673658 74.63542295 -96.99609375 86.49804688 C-98.17179845 106.89777422 -105.50382663 126.21535441 -112.15100098 145.34313965 C-113.70345152 149.81828819 -115.23885114 154.29933243 -116.7775116 158.77923584 C-117.59269916 161.14953613 -118.41057427 163.51891418 -119.23139954 165.88726807 C-119.59565536 166.94057312 -119.95991119 167.99387817 -120.33520508 169.07910156 C-120.81888298 170.47301117 -120.81888298 170.47301117 -121.31233215 171.89508057 C-122.05175724 173.78935966 -122.05175724 173.78935966 -122 175 C-60.62 175 0.76 175 64 175 C62.36199136 167.52643002 62.36199136 167.52643002 60.16821289 160.33520508 C59.81767349 159.31997269 59.46713409 158.3047403 59.10597229 157.25874329 C58.731978 156.18980331 58.3579837 155.12086334 57.97265625 154.01953125 C57.17236146 151.69732234 56.37223661 149.37505485 55.57226562 147.05273438 C54.32003498 143.43607685 53.06523109 139.82034491 51.80688477 136.20581055 C45.97046341 119.41219334 40.9935824 103.98250888 40.0625 86.125 C38.58157815 64.12026202 32.94991163 45.00887336 16 30 C-13.42785442 5.51038142 -52.65140776 9.41223748 -79 36 Z M-54 193 C-51.93305551 202.30125018 -49.98662353 208.76133519 -41.8125 214 C-35.09481142 217.81596511 -27.07928961 218.37997066 -19.61328125 216.3515625 C-13.4337849 213.51069385 -7.98995607 208.62072497 -5.0625 202.4375 C-3.70469373 198.64425727 -3.70469373 198.64425727 -4 193 C-20.5 193 -37 193 -54 193 Z " fill="#000000" transform="translate(370,149)"/>
<path d="M0 0 C1.18191925 -0.00571014 2.3638385 -0.01142029 3.58157349 -0.01730347 C4.88498184 -0.01842133 6.1883902 -0.01953918 7.53129578 -0.02069092 C8.91262444 -0.02531833 10.29395182 -0.03034289 11.67527771 -0.03573608 C15.43363911 -0.04887036 19.19198263 -0.05530715 22.9503634 -0.05974674 C25.29789677 -0.0626761 27.64542525 -0.06678067 29.99295616 -0.07125092 C37.33618088 -0.08492918 44.67939441 -0.09459396 52.02263099 -0.09845281 C60.50223713 -0.10293311 68.98168204 -0.12047827 77.46123916 -0.1494534 C84.01332375 -0.17106573 90.56536298 -0.18115686 97.11748284 -0.18249393 C101.03174704 -0.18354238 104.94585974 -0.18945839 108.86008644 -0.20731354 C112.54303027 -0.22378633 116.22570862 -0.22595372 119.90867615 -0.21717453 C121.9032382 -0.21603637 123.8977914 -0.22976028 125.89230347 -0.243927 C127.08268219 -0.23835785 128.27306091 -0.2327887 129.49951172 -0.22705078 C130.5320876 -0.22851734 131.56466349 -0.2299839 132.62852955 -0.2314949 C135.92848933 0.20502951 137.7746577 1.17171406 140.44023132 3.14044189 C142.77932439 6.6490815 142.85314189 8.01133622 142.44023132 12.14044189 C140.17552544 16.77279484 140.17552544 16.77279484 137.44023132 18.14044189 C135.53858311 18.24693071 133.6331947 18.28873624 131.72860718 18.30107117 C130.51303131 18.31111679 129.29745544 18.32116241 128.04504395 18.33151245 C126.6906897 18.33754275 125.33633481 18.34342773 123.98197937 18.34918213 C122.56124133 18.35871876 121.14050563 18.36860984 119.71977234 18.37882996 C115.04719302 18.41023474 110.37459578 18.43048274 105.70195007 18.44903564 C104.90734131 18.45233297 104.11273255 18.45563029 103.29404473 18.45902753 C95.80207024 18.48980713 88.31009178 18.51651835 80.81807232 18.53344631 C71.23040727 18.55536233 61.6433016 18.59735167 52.05586022 18.66688389 C45.31694709 18.71410054 38.57818501 18.73837663 31.83911163 18.7456432 C27.81285769 18.7506028 23.78723401 18.76571149 19.7611599 18.8053875 C15.9729556 18.84222734 12.18574215 18.8506732 8.39739227 18.83738136 C7.00781352 18.83743536 5.61819117 18.84775079 4.22877693 18.869133 C-6.18553074 19.02082237 -6.18553074 19.02082237 -9.5188961 16.88536263 C-12.03435348 14.0837108 -12.55751797 12.27098294 -12.62226868 8.51544189 C-11.4900286 4.9189146 -10.48791262 3.4474644 -7.55976868 1.14044189 C-4.92323414 -0.17782538 -2.95374924 0.00851854 0 0 Z " fill="#000000" transform="translate(88.55976867675781,459.85955810546875)"/>
</svg>
